<mxfile host="Electron" agent="Mozilla/5.0 (Windows NT 10.0; Win64; x64) AppleWebKit/537.36 (KHTML, like Gecko) draw.io/25.0.2 Chrome/128.0.6613.186 Electron/32.2.5 Safari/537.36" version="25.0.2" pages="4">
  <diagram name="main" id="R3Dyc0x_eZKbTb2tJzPs">
    <mxGraphModel dx="1290" dy="717" grid="1" gridSize="10" guides="1" tooltips="1" connect="1" arrows="1" fold="1" page="1" pageScale="1" pageWidth="827" pageHeight="1169" math="0" shadow="0">
      <root>
        <mxCell id="0" />
        <mxCell id="1" parent="0" />
        <mxCell id="yM17ESfwrJ7mqpnwB7im-1" value="" style="group" vertex="1" connectable="0" parent="1">
          <mxGeometry x="285" y="55" width="365" height="415" as="geometry" />
        </mxCell>
        <mxCell id="VHMopyKoTh09thwBu_RR-6" value="" style="edgeStyle=orthogonalEdgeStyle;rounded=0;orthogonalLoop=1;jettySize=auto;html=1;" parent="yM17ESfwrJ7mqpnwB7im-1" source="VHMopyKoTh09thwBu_RR-2" target="VHMopyKoTh09thwBu_RR-5" edge="1">
          <mxGeometry relative="1" as="geometry" />
        </mxCell>
        <mxCell id="VHMopyKoTh09thwBu_RR-2" value="Начало" style="ellipse;whiteSpace=wrap;html=1;" parent="yM17ESfwrJ7mqpnwB7im-1" vertex="1">
          <mxGeometry x="15" y="25" width="120" height="40" as="geometry" />
        </mxCell>
        <mxCell id="VHMopyKoTh09thwBu_RR-12" value="" style="edgeStyle=orthogonalEdgeStyle;rounded=0;orthogonalLoop=1;jettySize=auto;html=1;" parent="yM17ESfwrJ7mqpnwB7im-1" source="VHMopyKoTh09thwBu_RR-5" target="VHMopyKoTh09thwBu_RR-11" edge="1">
          <mxGeometry relative="1" as="geometry" />
        </mxCell>
        <mxCell id="VHMopyKoTh09thwBu_RR-5" value="int main()" style="shape=process;whiteSpace=wrap;html=1;backgroundOutline=1;" parent="yM17ESfwrJ7mqpnwB7im-1" vertex="1">
          <mxGeometry x="15" y="105" width="120" height="40" as="geometry" />
        </mxCell>
        <mxCell id="VHMopyKoTh09thwBu_RR-7" value="" style="endArrow=none;dashed=1;html=1;rounded=0;" parent="yM17ESfwrJ7mqpnwB7im-1" target="VHMopyKoTh09thwBu_RR-8" edge="1">
          <mxGeometry width="50" height="50" relative="1" as="geometry">
            <mxPoint x="75" y="85" as="sourcePoint" />
            <mxPoint x="215" y="85" as="targetPoint" />
          </mxGeometry>
        </mxCell>
        <mxCell id="VHMopyKoTh09thwBu_RR-8" value="" style="strokeWidth=2;html=1;shape=mxgraph.flowchart.annotation_1;align=left;pointerEvents=1;" parent="yM17ESfwrJ7mqpnwB7im-1" vertex="1">
          <mxGeometry x="190" y="5" width="50" height="160" as="geometry" />
        </mxCell>
        <mxCell id="VHMopyKoTh09thwBu_RR-10" value="&lt;div&gt;#include &amp;lt;iostream&amp;gt;&lt;/div&gt;&lt;div&gt;#include &amp;lt;clocale&amp;gt;&lt;/div&gt;&lt;div&gt;using namespace std;&lt;/div&gt;&lt;div&gt;&lt;br&gt;&lt;/div&gt;&lt;div&gt;void show();&lt;/div&gt;&lt;div&gt;bool check(int row, int col);&lt;/div&gt;&lt;div&gt;void game(int row);&lt;/div&gt;&lt;div&gt;&lt;br&gt;&lt;/div&gt;&lt;div&gt;const int size_arr = 8;&lt;/div&gt;&lt;div&gt;int pole[size_arr][size_arr]{};&lt;/div&gt;&lt;div&gt;int k = 0;&lt;/div&gt;" style="text;html=1;align=left;verticalAlign=middle;resizable=0;points=[];autosize=1;strokeColor=none;fillColor=none;" parent="yM17ESfwrJ7mqpnwB7im-1" vertex="1">
          <mxGeometry x="195" width="170" height="170" as="geometry" />
        </mxCell>
        <mxCell id="VHMopyKoTh09thwBu_RR-15" value="" style="edgeStyle=orthogonalEdgeStyle;rounded=0;orthogonalLoop=1;jettySize=auto;html=1;" parent="yM17ESfwrJ7mqpnwB7im-1" source="VHMopyKoTh09thwBu_RR-11" target="VHMopyKoTh09thwBu_RR-14" edge="1">
          <mxGeometry relative="1" as="geometry" />
        </mxCell>
        <mxCell id="VHMopyKoTh09thwBu_RR-11" value="setlocale(LC_ALL, &quot;RU&quot;);" style="whiteSpace=wrap;html=1;" parent="yM17ESfwrJ7mqpnwB7im-1" vertex="1">
          <mxGeometry y="185" width="150" height="40" as="geometry" />
        </mxCell>
        <mxCell id="VHMopyKoTh09thwBu_RR-13" value="{" style="text;html=1;align=center;verticalAlign=middle;resizable=0;points=[];autosize=1;strokeColor=none;fillColor=none;" parent="yM17ESfwrJ7mqpnwB7im-1" vertex="1">
          <mxGeometry x="45" y="140" width="30" height="30" as="geometry" />
        </mxCell>
        <mxCell id="VHMopyKoTh09thwBu_RR-17" value="" style="edgeStyle=orthogonalEdgeStyle;rounded=0;orthogonalLoop=1;jettySize=auto;html=1;" parent="yM17ESfwrJ7mqpnwB7im-1" source="VHMopyKoTh09thwBu_RR-14" target="VHMopyKoTh09thwBu_RR-16" edge="1">
          <mxGeometry relative="1" as="geometry" />
        </mxCell>
        <mxCell id="VHMopyKoTh09thwBu_RR-14" value="game(0);" style="whiteSpace=wrap;html=1;" parent="yM17ESfwrJ7mqpnwB7im-1" vertex="1">
          <mxGeometry x="15" y="265" width="120" height="40" as="geometry" />
        </mxCell>
        <mxCell id="VHMopyKoTh09thwBu_RR-16" value="return 0;" style="ellipse;whiteSpace=wrap;html=1;" parent="yM17ESfwrJ7mqpnwB7im-1" vertex="1">
          <mxGeometry x="15" y="345" width="120" height="40" as="geometry" />
        </mxCell>
        <mxCell id="VHMopyKoTh09thwBu_RR-18" value="}" style="text;html=1;align=center;verticalAlign=middle;resizable=0;points=[];autosize=1;strokeColor=none;fillColor=none;" parent="yM17ESfwrJ7mqpnwB7im-1" vertex="1">
          <mxGeometry x="60" y="385" width="30" height="30" as="geometry" />
        </mxCell>
      </root>
    </mxGraphModel>
  </diagram>
  <diagram id="9L6401wD4_5gGXE46xbB" name="show">
    <mxGraphModel dx="1290" dy="717" grid="1" gridSize="10" guides="1" tooltips="1" connect="1" arrows="1" fold="1" page="1" pageScale="1" pageWidth="827" pageHeight="1169" math="0" shadow="0">
      <root>
        <mxCell id="0" />
        <mxCell id="1" parent="0" />
        <mxCell id="3mAfi6TMB3a8fS44LWGv-1" value="" style="group" vertex="1" connectable="0" parent="1">
          <mxGeometry x="270" y="80" width="670" height="388" as="geometry" />
        </mxCell>
        <mxCell id="JmJ-KjtoPiRFlsGhYMHH-4" value="" style="edgeStyle=orthogonalEdgeStyle;rounded=0;orthogonalLoop=1;jettySize=auto;html=1;" parent="3mAfi6TMB3a8fS44LWGv-1" source="JmJ-KjtoPiRFlsGhYMHH-2" target="JmJ-KjtoPiRFlsGhYMHH-3" edge="1">
          <mxGeometry relative="1" as="geometry" />
        </mxCell>
        <mxCell id="JmJ-KjtoPiRFlsGhYMHH-2" value="void show()" style="shape=process;whiteSpace=wrap;html=1;backgroundOutline=1;" parent="3mAfi6TMB3a8fS44LWGv-1" vertex="1">
          <mxGeometry x="110" width="120" height="40" as="geometry" />
        </mxCell>
        <mxCell id="JmJ-KjtoPiRFlsGhYMHH-7" value="" style="edgeStyle=orthogonalEdgeStyle;rounded=0;orthogonalLoop=1;jettySize=auto;html=1;" parent="3mAfi6TMB3a8fS44LWGv-1" source="JmJ-KjtoPiRFlsGhYMHH-3" target="JmJ-KjtoPiRFlsGhYMHH-6" edge="1">
          <mxGeometry relative="1" as="geometry" />
        </mxCell>
        <mxCell id="JmJ-KjtoPiRFlsGhYMHH-19" style="edgeStyle=orthogonalEdgeStyle;rounded=0;orthogonalLoop=1;jettySize=auto;html=1;entryX=0.5;entryY=0;entryDx=0;entryDy=0;" parent="3mAfi6TMB3a8fS44LWGv-1" source="JmJ-KjtoPiRFlsGhYMHH-3" target="JmJ-KjtoPiRFlsGhYMHH-21" edge="1">
          <mxGeometry relative="1" as="geometry">
            <mxPoint x="610" y="240" as="targetPoint" />
            <Array as="points">
              <mxPoint x="610" y="100" />
            </Array>
          </mxGeometry>
        </mxCell>
        <mxCell id="JmJ-KjtoPiRFlsGhYMHH-3" value="for (int i = 0; i &amp;lt; size_arr; i++)" style="shape=hexagon;perimeter=hexagonPerimeter2;whiteSpace=wrap;html=1;fixedSize=1;" parent="3mAfi6TMB3a8fS44LWGv-1" vertex="1">
          <mxGeometry x="80" y="80" width="180" height="40" as="geometry" />
        </mxCell>
        <mxCell id="JmJ-KjtoPiRFlsGhYMHH-5" value="{" style="text;html=1;align=center;verticalAlign=middle;resizable=0;points=[];autosize=1;strokeColor=none;fillColor=none;" parent="3mAfi6TMB3a8fS44LWGv-1" vertex="1">
          <mxGeometry x="145" y="38" width="30" height="30" as="geometry" />
        </mxCell>
        <mxCell id="JmJ-KjtoPiRFlsGhYMHH-10" value="" style="edgeStyle=orthogonalEdgeStyle;rounded=0;orthogonalLoop=1;jettySize=auto;html=1;" parent="3mAfi6TMB3a8fS44LWGv-1" source="JmJ-KjtoPiRFlsGhYMHH-6" target="JmJ-KjtoPiRFlsGhYMHH-9" edge="1">
          <mxGeometry relative="1" as="geometry" />
        </mxCell>
        <mxCell id="JmJ-KjtoPiRFlsGhYMHH-14" style="edgeStyle=orthogonalEdgeStyle;rounded=0;orthogonalLoop=1;jettySize=auto;html=1;entryX=0.5;entryY=0;entryDx=0;entryDy=0;" parent="3mAfi6TMB3a8fS44LWGv-1" source="JmJ-KjtoPiRFlsGhYMHH-6" target="JmJ-KjtoPiRFlsGhYMHH-15" edge="1">
          <mxGeometry relative="1" as="geometry">
            <mxPoint x="450" y="240" as="targetPoint" />
          </mxGeometry>
        </mxCell>
        <mxCell id="JmJ-KjtoPiRFlsGhYMHH-6" value="for (int j = 0; j &amp;lt; size_arr; j++)" style="shape=hexagon;perimeter=hexagonPerimeter2;whiteSpace=wrap;html=1;fixedSize=1;" parent="3mAfi6TMB3a8fS44LWGv-1" vertex="1">
          <mxGeometry x="82.5" y="160" width="175" height="40" as="geometry" />
        </mxCell>
        <mxCell id="JmJ-KjtoPiRFlsGhYMHH-8" value="{" style="text;html=1;align=center;verticalAlign=middle;resizable=0;points=[];autosize=1;strokeColor=none;fillColor=none;" parent="3mAfi6TMB3a8fS44LWGv-1" vertex="1">
          <mxGeometry x="145" y="118" width="30" height="30" as="geometry" />
        </mxCell>
        <mxCell id="JmJ-KjtoPiRFlsGhYMHH-13" style="edgeStyle=orthogonalEdgeStyle;rounded=0;orthogonalLoop=1;jettySize=auto;html=1;entryX=0;entryY=0.5;entryDx=0;entryDy=0;" parent="3mAfi6TMB3a8fS44LWGv-1" source="JmJ-KjtoPiRFlsGhYMHH-9" target="JmJ-KjtoPiRFlsGhYMHH-6" edge="1">
          <mxGeometry relative="1" as="geometry">
            <mxPoint x="30" y="180" as="targetPoint" />
            <Array as="points">
              <mxPoint x="170" y="320" />
              <mxPoint x="40" y="320" />
              <mxPoint x="40" y="180" />
            </Array>
          </mxGeometry>
        </mxCell>
        <mxCell id="JmJ-KjtoPiRFlsGhYMHH-9" value="cout &amp;lt;&amp;lt; ((pole[i][j]) ? &quot;! &quot; : &quot;# &quot;);" style="shape=parallelogram;perimeter=parallelogramPerimeter;whiteSpace=wrap;html=1;fixedSize=1;" parent="3mAfi6TMB3a8fS44LWGv-1" vertex="1">
          <mxGeometry x="60" y="240" width="220" height="40" as="geometry" />
        </mxCell>
        <mxCell id="JmJ-KjtoPiRFlsGhYMHH-11" value="1" style="text;html=1;align=center;verticalAlign=middle;resizable=0;points=[];autosize=1;strokeColor=none;fillColor=none;" parent="3mAfi6TMB3a8fS44LWGv-1" vertex="1">
          <mxGeometry x="165" y="130" width="30" height="30" as="geometry" />
        </mxCell>
        <mxCell id="JmJ-KjtoPiRFlsGhYMHH-12" value="1" style="text;html=1;align=center;verticalAlign=middle;resizable=0;points=[];autosize=1;strokeColor=none;fillColor=none;" parent="3mAfi6TMB3a8fS44LWGv-1" vertex="1">
          <mxGeometry x="165" y="208" width="30" height="30" as="geometry" />
        </mxCell>
        <mxCell id="JmJ-KjtoPiRFlsGhYMHH-17" style="edgeStyle=orthogonalEdgeStyle;rounded=0;orthogonalLoop=1;jettySize=auto;html=1;entryX=0;entryY=0.5;entryDx=0;entryDy=0;" parent="3mAfi6TMB3a8fS44LWGv-1" source="JmJ-KjtoPiRFlsGhYMHH-15" target="JmJ-KjtoPiRFlsGhYMHH-3" edge="1">
          <mxGeometry relative="1" as="geometry">
            <mxPoint x="10" y="100" as="targetPoint" />
            <Array as="points">
              <mxPoint x="390" y="360" />
              <mxPoint y="360" />
              <mxPoint y="100" />
            </Array>
          </mxGeometry>
        </mxCell>
        <mxCell id="JmJ-KjtoPiRFlsGhYMHH-15" value="cout &amp;lt;&amp;lt; endl;" style="shape=parallelogram;perimeter=parallelogramPerimeter;whiteSpace=wrap;html=1;fixedSize=1;" parent="3mAfi6TMB3a8fS44LWGv-1" vertex="1">
          <mxGeometry x="330" y="238" width="120" height="40" as="geometry" />
        </mxCell>
        <mxCell id="JmJ-KjtoPiRFlsGhYMHH-16" value="0" style="text;html=1;align=center;verticalAlign=middle;resizable=0;points=[];autosize=1;strokeColor=none;fillColor=none;" parent="3mAfi6TMB3a8fS44LWGv-1" vertex="1">
          <mxGeometry x="365" y="148" width="30" height="30" as="geometry" />
        </mxCell>
        <mxCell id="JmJ-KjtoPiRFlsGhYMHH-18" value="}" style="text;html=1;align=center;verticalAlign=middle;resizable=0;points=[];autosize=1;strokeColor=none;fillColor=none;" parent="3mAfi6TMB3a8fS44LWGv-1" vertex="1">
          <mxGeometry x="375" y="358" width="30" height="30" as="geometry" />
        </mxCell>
        <mxCell id="JmJ-KjtoPiRFlsGhYMHH-20" value="0" style="text;html=1;align=center;verticalAlign=middle;resizable=0;points=[];autosize=1;strokeColor=none;fillColor=none;" parent="3mAfi6TMB3a8fS44LWGv-1" vertex="1">
          <mxGeometry x="575" y="78" width="30" height="30" as="geometry" />
        </mxCell>
        <mxCell id="JmJ-KjtoPiRFlsGhYMHH-21" value="return;" style="ellipse;whiteSpace=wrap;html=1;" parent="3mAfi6TMB3a8fS44LWGv-1" vertex="1">
          <mxGeometry x="550" y="240" width="120" height="40" as="geometry" />
        </mxCell>
        <mxCell id="JmJ-KjtoPiRFlsGhYMHH-22" value="}" style="text;html=1;align=center;verticalAlign=middle;resizable=0;points=[];autosize=1;strokeColor=none;fillColor=none;" parent="3mAfi6TMB3a8fS44LWGv-1" vertex="1">
          <mxGeometry x="595" y="278" width="30" height="30" as="geometry" />
        </mxCell>
      </root>
    </mxGraphModel>
  </diagram>
  <diagram id="tSQX21CQXW1-VhGSIREU" name="check">
    <mxGraphModel dx="2580" dy="1434" grid="1" gridSize="10" guides="1" tooltips="1" connect="1" arrows="1" fold="1" page="1" pageScale="1" pageWidth="827" pageHeight="1169" math="0" shadow="0">
      <root>
        <mxCell id="0" />
        <mxCell id="1" parent="0" />
        <mxCell id="tXdFdsMBpu4aExFXc8U7-1" value="" style="group" vertex="1" connectable="0" parent="1">
          <mxGeometry x="280" y="80" width="390" height="1108" as="geometry" />
        </mxCell>
        <mxCell id="u3OSpjLxL29s8oJpUZRo-4" value="" style="edgeStyle=orthogonalEdgeStyle;rounded=0;orthogonalLoop=1;jettySize=auto;html=1;" parent="tXdFdsMBpu4aExFXc8U7-1" source="u3OSpjLxL29s8oJpUZRo-2" target="u3OSpjLxL29s8oJpUZRo-3" edge="1">
          <mxGeometry relative="1" as="geometry" />
        </mxCell>
        <mxCell id="u3OSpjLxL29s8oJpUZRo-2" value="bool check(int row, int col)" style="shape=process;whiteSpace=wrap;html=1;backgroundOutline=1;" parent="tXdFdsMBpu4aExFXc8U7-1" vertex="1">
          <mxGeometry x="100" width="200" height="40" as="geometry" />
        </mxCell>
        <mxCell id="25I7_07yLmhITWzVwmDj-2" value="" style="edgeStyle=orthogonalEdgeStyle;rounded=0;orthogonalLoop=1;jettySize=auto;html=1;" parent="tXdFdsMBpu4aExFXc8U7-1" source="u3OSpjLxL29s8oJpUZRo-3" target="25I7_07yLmhITWzVwmDj-1" edge="1">
          <mxGeometry relative="1" as="geometry" />
        </mxCell>
        <mxCell id="25I7_07yLmhITWzVwmDj-13" style="edgeStyle=orthogonalEdgeStyle;rounded=0;orthogonalLoop=1;jettySize=auto;html=1;entryX=0.5;entryY=0;entryDx=0;entryDy=0;" parent="tXdFdsMBpu4aExFXc8U7-1" source="u3OSpjLxL29s8oJpUZRo-3" target="25I7_07yLmhITWzVwmDj-14" edge="1">
          <mxGeometry relative="1" as="geometry">
            <mxPoint x="520" y="160" as="targetPoint" />
            <Array as="points">
              <mxPoint x="360" y="100" />
              <mxPoint x="360" y="360" />
              <mxPoint x="200" y="360" />
            </Array>
          </mxGeometry>
        </mxCell>
        <mxCell id="u3OSpjLxL29s8oJpUZRo-3" value="for (int i = 0; i &amp;lt; row; i++)" style="shape=hexagon;perimeter=hexagonPerimeter2;whiteSpace=wrap;html=1;fixedSize=1;" parent="tXdFdsMBpu4aExFXc8U7-1" vertex="1">
          <mxGeometry x="120" y="80" width="160" height="40" as="geometry" />
        </mxCell>
        <mxCell id="u3OSpjLxL29s8oJpUZRo-5" value="{" style="text;html=1;align=center;verticalAlign=middle;resizable=0;points=[];autosize=1;strokeColor=none;fillColor=none;" parent="tXdFdsMBpu4aExFXc8U7-1" vertex="1">
          <mxGeometry x="175" y="38" width="30" height="30" as="geometry" />
        </mxCell>
        <mxCell id="25I7_07yLmhITWzVwmDj-5" style="edgeStyle=orthogonalEdgeStyle;rounded=0;orthogonalLoop=1;jettySize=auto;html=1;exitX=0;exitY=0.5;exitDx=0;exitDy=0;" parent="tXdFdsMBpu4aExFXc8U7-1" source="25I7_07yLmhITWzVwmDj-1" target="25I7_07yLmhITWzVwmDj-6" edge="1">
          <mxGeometry relative="1" as="geometry">
            <mxPoint x="120" y="240.0000000000001" as="targetPoint" />
          </mxGeometry>
        </mxCell>
        <mxCell id="25I7_07yLmhITWzVwmDj-8" style="edgeStyle=orthogonalEdgeStyle;rounded=0;orthogonalLoop=1;jettySize=auto;html=1;" parent="tXdFdsMBpu4aExFXc8U7-1" source="25I7_07yLmhITWzVwmDj-1" edge="1">
          <mxGeometry relative="1" as="geometry">
            <mxPoint x="200" y="300" as="targetPoint" />
            <Array as="points">
              <mxPoint x="280" y="180" />
              <mxPoint x="280" y="300" />
            </Array>
          </mxGeometry>
        </mxCell>
        <mxCell id="25I7_07yLmhITWzVwmDj-1" value="if (pole[i][col])" style="rhombus;whiteSpace=wrap;html=1;" parent="tXdFdsMBpu4aExFXc8U7-1" vertex="1">
          <mxGeometry x="140" y="160" width="120" height="40" as="geometry" />
        </mxCell>
        <mxCell id="25I7_07yLmhITWzVwmDj-3" value="1" style="text;html=1;align=center;verticalAlign=middle;resizable=0;points=[];autosize=1;strokeColor=none;fillColor=none;" parent="tXdFdsMBpu4aExFXc8U7-1" vertex="1">
          <mxGeometry x="195" y="130" width="30" height="30" as="geometry" />
        </mxCell>
        <mxCell id="25I7_07yLmhITWzVwmDj-9" style="edgeStyle=orthogonalEdgeStyle;rounded=0;orthogonalLoop=1;jettySize=auto;html=1;exitX=0.5;exitY=1;exitDx=0;exitDy=0;" parent="tXdFdsMBpu4aExFXc8U7-1" source="25I7_07yLmhITWzVwmDj-6" edge="1">
          <mxGeometry relative="1" as="geometry">
            <mxPoint x="200" y="300" as="targetPoint" />
            <Array as="points">
              <mxPoint x="115" y="300" />
            </Array>
          </mxGeometry>
        </mxCell>
        <mxCell id="25I7_07yLmhITWzVwmDj-6" value="return false;" style="ellipse;whiteSpace=wrap;html=1;" parent="tXdFdsMBpu4aExFXc8U7-1" vertex="1">
          <mxGeometry x="55" y="240" width="120" height="40" as="geometry" />
        </mxCell>
        <mxCell id="25I7_07yLmhITWzVwmDj-7" value="1" style="text;html=1;align=center;verticalAlign=middle;resizable=0;points=[];autosize=1;strokeColor=none;fillColor=none;" parent="tXdFdsMBpu4aExFXc8U7-1" vertex="1">
          <mxGeometry x="105" y="158" width="30" height="30" as="geometry" />
        </mxCell>
        <mxCell id="25I7_07yLmhITWzVwmDj-10" value="0" style="text;html=1;align=center;verticalAlign=middle;resizable=0;points=[];autosize=1;strokeColor=none;fillColor=none;" parent="tXdFdsMBpu4aExFXc8U7-1" vertex="1">
          <mxGeometry x="260" y="158" width="30" height="30" as="geometry" />
        </mxCell>
        <mxCell id="25I7_07yLmhITWzVwmDj-11" value="" style="endArrow=classic;html=1;rounded=0;entryX=0;entryY=0.5;entryDx=0;entryDy=0;" parent="tXdFdsMBpu4aExFXc8U7-1" target="u3OSpjLxL29s8oJpUZRo-3" edge="1">
          <mxGeometry width="50" height="50" relative="1" as="geometry">
            <mxPoint x="200" y="300" as="sourcePoint" />
            <mxPoint x="40" y="100" as="targetPoint" />
            <Array as="points">
              <mxPoint x="200" y="320" />
              <mxPoint x="40" y="320" />
              <mxPoint x="40" y="100" />
            </Array>
          </mxGeometry>
        </mxCell>
        <mxCell id="25I7_07yLmhITWzVwmDj-17" value="" style="edgeStyle=orthogonalEdgeStyle;rounded=0;orthogonalLoop=1;jettySize=auto;html=1;" parent="tXdFdsMBpu4aExFXc8U7-1" source="25I7_07yLmhITWzVwmDj-14" target="25I7_07yLmhITWzVwmDj-16" edge="1">
          <mxGeometry relative="1" as="geometry" />
        </mxCell>
        <mxCell id="25I7_07yLmhITWzVwmDj-26" style="edgeStyle=orthogonalEdgeStyle;rounded=0;orthogonalLoop=1;jettySize=auto;html=1;entryX=0.5;entryY=0;entryDx=0;entryDy=0;" parent="tXdFdsMBpu4aExFXc8U7-1" source="25I7_07yLmhITWzVwmDj-14" target="25I7_07yLmhITWzVwmDj-27" edge="1">
          <mxGeometry relative="1" as="geometry">
            <mxPoint x="1000" y="200" as="targetPoint" />
            <Array as="points">
              <mxPoint x="380" y="420" />
              <mxPoint x="380" y="680" />
              <mxPoint x="200" y="680" />
            </Array>
          </mxGeometry>
        </mxCell>
        <mxCell id="25I7_07yLmhITWzVwmDj-14" value="for (int i = 1; row - i &amp;gt;= 0 &amp;amp;&amp;amp; col - i &amp;gt;= 0; i++)" style="shape=hexagon;perimeter=hexagonPerimeter2;whiteSpace=wrap;html=1;fixedSize=1;" parent="tXdFdsMBpu4aExFXc8U7-1" vertex="1">
          <mxGeometry x="60" y="400" width="280" height="40" as="geometry" />
        </mxCell>
        <mxCell id="25I7_07yLmhITWzVwmDj-15" value="0" style="text;html=1;align=center;verticalAlign=middle;resizable=0;points=[];autosize=1;strokeColor=none;fillColor=none;" parent="tXdFdsMBpu4aExFXc8U7-1" vertex="1">
          <mxGeometry x="330" y="68" width="30" height="30" as="geometry" />
        </mxCell>
        <mxCell id="25I7_07yLmhITWzVwmDj-19" style="edgeStyle=orthogonalEdgeStyle;rounded=0;orthogonalLoop=1;jettySize=auto;html=1;exitX=0;exitY=0.5;exitDx=0;exitDy=0;" parent="tXdFdsMBpu4aExFXc8U7-1" source="25I7_07yLmhITWzVwmDj-16" target="25I7_07yLmhITWzVwmDj-20" edge="1">
          <mxGeometry relative="1" as="geometry">
            <mxPoint x="80" y="560" as="targetPoint" />
          </mxGeometry>
        </mxCell>
        <mxCell id="25I7_07yLmhITWzVwmDj-23" style="edgeStyle=orthogonalEdgeStyle;rounded=0;orthogonalLoop=1;jettySize=auto;html=1;" parent="tXdFdsMBpu4aExFXc8U7-1" source="25I7_07yLmhITWzVwmDj-16" edge="1">
          <mxGeometry relative="1" as="geometry">
            <mxPoint x="200" y="620" as="targetPoint" />
            <Array as="points">
              <mxPoint x="320" y="500" />
              <mxPoint x="320" y="620" />
            </Array>
          </mxGeometry>
        </mxCell>
        <mxCell id="25I7_07yLmhITWzVwmDj-16" value="if (pole[row - i][col - i])" style="rhombus;whiteSpace=wrap;html=1;" parent="tXdFdsMBpu4aExFXc8U7-1" vertex="1">
          <mxGeometry x="100" y="480" width="200" height="40" as="geometry" />
        </mxCell>
        <mxCell id="25I7_07yLmhITWzVwmDj-18" value="1" style="text;html=1;align=center;verticalAlign=middle;resizable=0;points=[];autosize=1;strokeColor=none;fillColor=none;" parent="tXdFdsMBpu4aExFXc8U7-1" vertex="1">
          <mxGeometry x="195" y="450" width="30" height="30" as="geometry" />
        </mxCell>
        <mxCell id="25I7_07yLmhITWzVwmDj-22" style="edgeStyle=orthogonalEdgeStyle;rounded=0;orthogonalLoop=1;jettySize=auto;html=1;exitX=0.5;exitY=1;exitDx=0;exitDy=0;" parent="tXdFdsMBpu4aExFXc8U7-1" source="25I7_07yLmhITWzVwmDj-20" edge="1">
          <mxGeometry relative="1" as="geometry">
            <mxPoint x="200" y="620" as="targetPoint" />
            <Array as="points">
              <mxPoint x="80" y="620" />
            </Array>
          </mxGeometry>
        </mxCell>
        <mxCell id="25I7_07yLmhITWzVwmDj-20" value="return false;" style="ellipse;whiteSpace=wrap;html=1;" parent="tXdFdsMBpu4aExFXc8U7-1" vertex="1">
          <mxGeometry x="20" y="560" width="120" height="40" as="geometry" />
        </mxCell>
        <mxCell id="25I7_07yLmhITWzVwmDj-21" value="1" style="text;html=1;align=center;verticalAlign=middle;resizable=0;points=[];autosize=1;strokeColor=none;fillColor=none;" parent="tXdFdsMBpu4aExFXc8U7-1" vertex="1">
          <mxGeometry x="70" y="470" width="30" height="30" as="geometry" />
        </mxCell>
        <mxCell id="25I7_07yLmhITWzVwmDj-24" value="0" style="text;html=1;align=center;verticalAlign=middle;resizable=0;points=[];autosize=1;strokeColor=none;fillColor=none;" parent="tXdFdsMBpu4aExFXc8U7-1" vertex="1">
          <mxGeometry x="300" y="470" width="30" height="30" as="geometry" />
        </mxCell>
        <mxCell id="25I7_07yLmhITWzVwmDj-25" value="" style="endArrow=classic;html=1;rounded=0;entryX=0;entryY=0.5;entryDx=0;entryDy=0;" parent="tXdFdsMBpu4aExFXc8U7-1" target="25I7_07yLmhITWzVwmDj-14" edge="1">
          <mxGeometry width="50" height="50" relative="1" as="geometry">
            <mxPoint x="200" y="620" as="sourcePoint" />
            <mxPoint y="420" as="targetPoint" />
            <Array as="points">
              <mxPoint x="200" y="640" />
              <mxPoint y="640" />
              <mxPoint y="420" />
            </Array>
          </mxGeometry>
        </mxCell>
        <mxCell id="25I7_07yLmhITWzVwmDj-29" value="" style="edgeStyle=orthogonalEdgeStyle;rounded=0;orthogonalLoop=1;jettySize=auto;html=1;" parent="tXdFdsMBpu4aExFXc8U7-1" source="25I7_07yLmhITWzVwmDj-27" target="25I7_07yLmhITWzVwmDj-28" edge="1">
          <mxGeometry relative="1" as="geometry" />
        </mxCell>
        <mxCell id="25I7_07yLmhITWzVwmDj-38" style="edgeStyle=orthogonalEdgeStyle;rounded=0;orthogonalLoop=1;jettySize=auto;html=1;" parent="tXdFdsMBpu4aExFXc8U7-1" source="25I7_07yLmhITWzVwmDj-27" target="25I7_07yLmhITWzVwmDj-39" edge="1">
          <mxGeometry relative="1" as="geometry">
            <mxPoint x="200" y="1040" as="targetPoint" />
            <Array as="points">
              <mxPoint x="380" y="740" />
              <mxPoint x="380" y="1000" />
            </Array>
          </mxGeometry>
        </mxCell>
        <mxCell id="25I7_07yLmhITWzVwmDj-27" value="for (int i = 1; row - i &amp;gt;= 0 &amp;amp;&amp;amp; col + i &amp;lt; size_arr; i++)" style="shape=hexagon;perimeter=hexagonPerimeter2;whiteSpace=wrap;html=1;fixedSize=1;" parent="tXdFdsMBpu4aExFXc8U7-1" vertex="1">
          <mxGeometry x="50" y="720" width="300" height="40" as="geometry" />
        </mxCell>
        <mxCell id="25I7_07yLmhITWzVwmDj-32" style="edgeStyle=orthogonalEdgeStyle;rounded=0;orthogonalLoop=1;jettySize=auto;html=1;exitX=0;exitY=0.5;exitDx=0;exitDy=0;" parent="tXdFdsMBpu4aExFXc8U7-1" source="25I7_07yLmhITWzVwmDj-28" target="25I7_07yLmhITWzVwmDj-33" edge="1">
          <mxGeometry relative="1" as="geometry">
            <mxPoint x="80" y="880" as="targetPoint" />
          </mxGeometry>
        </mxCell>
        <mxCell id="25I7_07yLmhITWzVwmDj-36" style="edgeStyle=orthogonalEdgeStyle;rounded=0;orthogonalLoop=1;jettySize=auto;html=1;" parent="tXdFdsMBpu4aExFXc8U7-1" source="25I7_07yLmhITWzVwmDj-28" edge="1">
          <mxGeometry relative="1" as="geometry">
            <mxPoint x="200" y="940" as="targetPoint" />
            <Array as="points">
              <mxPoint x="321" y="820" />
              <mxPoint x="321" y="940" />
            </Array>
          </mxGeometry>
        </mxCell>
        <mxCell id="25I7_07yLmhITWzVwmDj-28" value="if (pole[row - i][col + i])" style="rhombus;whiteSpace=wrap;html=1;" parent="tXdFdsMBpu4aExFXc8U7-1" vertex="1">
          <mxGeometry x="100" y="800" width="200" height="40" as="geometry" />
        </mxCell>
        <mxCell id="25I7_07yLmhITWzVwmDj-30" value="1" style="text;html=1;align=center;verticalAlign=middle;resizable=0;points=[];autosize=1;strokeColor=none;fillColor=none;" parent="tXdFdsMBpu4aExFXc8U7-1" vertex="1">
          <mxGeometry x="195" y="770" width="30" height="30" as="geometry" />
        </mxCell>
        <mxCell id="25I7_07yLmhITWzVwmDj-31" value="0" style="text;html=1;align=center;verticalAlign=middle;resizable=0;points=[];autosize=1;strokeColor=none;fillColor=none;" parent="tXdFdsMBpu4aExFXc8U7-1" vertex="1">
          <mxGeometry x="350" y="390" width="30" height="30" as="geometry" />
        </mxCell>
        <mxCell id="25I7_07yLmhITWzVwmDj-35" style="edgeStyle=orthogonalEdgeStyle;rounded=0;orthogonalLoop=1;jettySize=auto;html=1;exitX=0.5;exitY=1;exitDx=0;exitDy=0;" parent="tXdFdsMBpu4aExFXc8U7-1" source="25I7_07yLmhITWzVwmDj-33" edge="1">
          <mxGeometry relative="1" as="geometry">
            <mxPoint x="200" y="940" as="targetPoint" />
            <Array as="points">
              <mxPoint x="80" y="940" />
            </Array>
          </mxGeometry>
        </mxCell>
        <mxCell id="25I7_07yLmhITWzVwmDj-33" value="return false;" style="ellipse;whiteSpace=wrap;html=1;" parent="tXdFdsMBpu4aExFXc8U7-1" vertex="1">
          <mxGeometry x="20" y="880" width="120" height="40" as="geometry" />
        </mxCell>
        <mxCell id="25I7_07yLmhITWzVwmDj-34" value="1" style="text;html=1;align=center;verticalAlign=middle;resizable=0;points=[];autosize=1;strokeColor=none;fillColor=none;" parent="tXdFdsMBpu4aExFXc8U7-1" vertex="1">
          <mxGeometry x="70" y="790" width="30" height="30" as="geometry" />
        </mxCell>
        <mxCell id="25I7_07yLmhITWzVwmDj-37" value="" style="endArrow=classic;html=1;rounded=0;entryX=0;entryY=0.5;entryDx=0;entryDy=0;" parent="tXdFdsMBpu4aExFXc8U7-1" target="25I7_07yLmhITWzVwmDj-27" edge="1">
          <mxGeometry width="50" height="50" relative="1" as="geometry">
            <mxPoint x="200" y="940" as="sourcePoint" />
            <mxPoint y="740" as="targetPoint" />
            <Array as="points">
              <mxPoint x="200" y="960" />
              <mxPoint y="960" />
              <mxPoint y="740" />
            </Array>
          </mxGeometry>
        </mxCell>
        <mxCell id="25I7_07yLmhITWzVwmDj-39" value="return true;" style="ellipse;whiteSpace=wrap;html=1;" parent="tXdFdsMBpu4aExFXc8U7-1" vertex="1">
          <mxGeometry x="140" y="1040" width="120" height="40" as="geometry" />
        </mxCell>
        <mxCell id="25I7_07yLmhITWzVwmDj-40" value="}" style="text;html=1;align=center;verticalAlign=middle;resizable=0;points=[];autosize=1;strokeColor=none;fillColor=none;" parent="tXdFdsMBpu4aExFXc8U7-1" vertex="1">
          <mxGeometry x="185" y="1078" width="30" height="30" as="geometry" />
        </mxCell>
        <mxCell id="25I7_07yLmhITWzVwmDj-41" value="0" style="text;html=1;align=center;verticalAlign=middle;resizable=0;points=[];autosize=1;strokeColor=none;fillColor=none;" parent="tXdFdsMBpu4aExFXc8U7-1" vertex="1">
          <mxGeometry x="360" y="710" width="30" height="30" as="geometry" />
        </mxCell>
      </root>
    </mxGraphModel>
  </diagram>
  <diagram id="sYmPWxuR5smmLIyBXRa-" name="game">
    <mxGraphModel dx="1985" dy="1103" grid="1" gridSize="10" guides="1" tooltips="1" connect="1" arrows="1" fold="1" page="1" pageScale="1" pageWidth="827" pageHeight="1169" math="0" shadow="0">
      <root>
        <mxCell id="0" />
        <mxCell id="1" parent="0" />
        <mxCell id="-hal_Foj1pg7Ubx8xO2s-1" value="" style="group" vertex="1" connectable="0" parent="1">
          <mxGeometry x="170" y="80" width="440" height="988" as="geometry" />
        </mxCell>
        <mxCell id="13MWcUhrzCZY7gtnkA32-4" value="" style="edgeStyle=orthogonalEdgeStyle;rounded=0;orthogonalLoop=1;jettySize=auto;html=1;" parent="-hal_Foj1pg7Ubx8xO2s-1" source="13MWcUhrzCZY7gtnkA32-2" target="13MWcUhrzCZY7gtnkA32-3" edge="1">
          <mxGeometry relative="1" as="geometry" />
        </mxCell>
        <mxCell id="13MWcUhrzCZY7gtnkA32-2" value="void game(int row)" style="shape=process;whiteSpace=wrap;html=1;backgroundOutline=1;" parent="-hal_Foj1pg7Ubx8xO2s-1" vertex="1">
          <mxGeometry x="200" width="140" height="40" as="geometry" />
        </mxCell>
        <mxCell id="13MWcUhrzCZY7gtnkA32-8" value="" style="edgeStyle=orthogonalEdgeStyle;rounded=0;orthogonalLoop=1;jettySize=auto;html=1;exitX=0;exitY=0.5;exitDx=0;exitDy=0;" parent="-hal_Foj1pg7Ubx8xO2s-1" source="13MWcUhrzCZY7gtnkA32-3" target="13MWcUhrzCZY7gtnkA32-7" edge="1">
          <mxGeometry relative="1" as="geometry" />
        </mxCell>
        <mxCell id="13MWcUhrzCZY7gtnkA32-19" style="edgeStyle=orthogonalEdgeStyle;rounded=0;orthogonalLoop=1;jettySize=auto;html=1;" parent="-hal_Foj1pg7Ubx8xO2s-1" source="13MWcUhrzCZY7gtnkA32-3" edge="1">
          <mxGeometry relative="1" as="geometry">
            <mxPoint x="270" y="410" as="targetPoint" />
            <Array as="points">
              <mxPoint x="391" y="100" />
              <mxPoint x="391" y="410" />
            </Array>
          </mxGeometry>
        </mxCell>
        <mxCell id="13MWcUhrzCZY7gtnkA32-3" value="if (row == size_arr)" style="rhombus;whiteSpace=wrap;html=1;" parent="-hal_Foj1pg7Ubx8xO2s-1" vertex="1">
          <mxGeometry x="180" y="80" width="180" height="40" as="geometry" />
        </mxCell>
        <mxCell id="13MWcUhrzCZY7gtnkA32-5" value="{" style="text;html=1;align=center;verticalAlign=middle;resizable=0;points=[];autosize=1;strokeColor=none;fillColor=none;" parent="-hal_Foj1pg7Ubx8xO2s-1" vertex="1">
          <mxGeometry x="245" y="38" width="30" height="30" as="geometry" />
        </mxCell>
        <mxCell id="13MWcUhrzCZY7gtnkA32-12" value="" style="edgeStyle=orthogonalEdgeStyle;rounded=0;orthogonalLoop=1;jettySize=auto;html=1;" parent="-hal_Foj1pg7Ubx8xO2s-1" source="13MWcUhrzCZY7gtnkA32-7" target="13MWcUhrzCZY7gtnkA32-11" edge="1">
          <mxGeometry relative="1" as="geometry" />
        </mxCell>
        <mxCell id="13MWcUhrzCZY7gtnkA32-7" value="cout &amp;lt;&amp;lt; &quot;Расстановка #&quot; &amp;lt;&amp;lt; ++k &amp;lt;&amp;lt; endl &amp;lt;&amp;lt; endl;" style="shape=parallelogram;perimeter=parallelogramPerimeter;whiteSpace=wrap;html=1;fixedSize=1;" parent="-hal_Foj1pg7Ubx8xO2s-1" vertex="1">
          <mxGeometry y="158" width="300" height="40" as="geometry" />
        </mxCell>
        <mxCell id="13MWcUhrzCZY7gtnkA32-9" value="1" style="text;html=1;align=center;verticalAlign=middle;resizable=0;points=[];autosize=1;strokeColor=none;fillColor=none;" parent="-hal_Foj1pg7Ubx8xO2s-1" vertex="1">
          <mxGeometry x="145" y="78" width="30" height="30" as="geometry" />
        </mxCell>
        <mxCell id="13MWcUhrzCZY7gtnkA32-10" value="{" style="text;html=1;align=center;verticalAlign=middle;resizable=0;points=[];autosize=1;strokeColor=none;fillColor=none;" parent="-hal_Foj1pg7Ubx8xO2s-1" vertex="1">
          <mxGeometry x="125" y="128" width="30" height="30" as="geometry" />
        </mxCell>
        <mxCell id="13MWcUhrzCZY7gtnkA32-14" value="" style="edgeStyle=orthogonalEdgeStyle;rounded=0;orthogonalLoop=1;jettySize=auto;html=1;" parent="-hal_Foj1pg7Ubx8xO2s-1" source="13MWcUhrzCZY7gtnkA32-11" target="13MWcUhrzCZY7gtnkA32-13" edge="1">
          <mxGeometry relative="1" as="geometry" />
        </mxCell>
        <mxCell id="13MWcUhrzCZY7gtnkA32-11" value="show();" style="whiteSpace=wrap;html=1;" parent="-hal_Foj1pg7Ubx8xO2s-1" vertex="1">
          <mxGeometry x="90" y="220" width="120" height="40" as="geometry" />
        </mxCell>
        <mxCell id="13MWcUhrzCZY7gtnkA32-15" style="edgeStyle=orthogonalEdgeStyle;rounded=0;orthogonalLoop=1;jettySize=auto;html=1;" parent="-hal_Foj1pg7Ubx8xO2s-1" source="13MWcUhrzCZY7gtnkA32-13" target="13MWcUhrzCZY7gtnkA32-16" edge="1">
          <mxGeometry relative="1" as="geometry">
            <mxPoint x="150" y="360" as="targetPoint" />
          </mxGeometry>
        </mxCell>
        <mxCell id="13MWcUhrzCZY7gtnkA32-13" value="cout &amp;lt;&amp;lt; endl;" style="shape=parallelogram;perimeter=parallelogramPerimeter;whiteSpace=wrap;html=1;fixedSize=1;" parent="-hal_Foj1pg7Ubx8xO2s-1" vertex="1">
          <mxGeometry x="90" y="280" width="120" height="40" as="geometry" />
        </mxCell>
        <mxCell id="13MWcUhrzCZY7gtnkA32-18" style="edgeStyle=orthogonalEdgeStyle;rounded=0;orthogonalLoop=1;jettySize=auto;html=1;exitX=0.5;exitY=1;exitDx=0;exitDy=0;" parent="-hal_Foj1pg7Ubx8xO2s-1" source="13MWcUhrzCZY7gtnkA32-16" edge="1">
          <mxGeometry relative="1" as="geometry">
            <mxPoint x="270" y="410" as="targetPoint" />
            <Array as="points">
              <mxPoint x="150" y="410" />
              <mxPoint x="270" y="410" />
            </Array>
          </mxGeometry>
        </mxCell>
        <mxCell id="13MWcUhrzCZY7gtnkA32-16" value="return;" style="ellipse;whiteSpace=wrap;html=1;" parent="-hal_Foj1pg7Ubx8xO2s-1" vertex="1">
          <mxGeometry x="90" y="340" width="120" height="40" as="geometry" />
        </mxCell>
        <mxCell id="13MWcUhrzCZY7gtnkA32-20" value="0" style="text;html=1;align=center;verticalAlign=middle;resizable=0;points=[];autosize=1;strokeColor=none;fillColor=none;" parent="-hal_Foj1pg7Ubx8xO2s-1" vertex="1">
          <mxGeometry x="370" y="78" width="30" height="30" as="geometry" />
        </mxCell>
        <mxCell id="13MWcUhrzCZY7gtnkA32-21" value="" style="endArrow=classic;html=1;rounded=0;" parent="-hal_Foj1pg7Ubx8xO2s-1" target="13MWcUhrzCZY7gtnkA32-23" edge="1">
          <mxGeometry width="50" height="50" relative="1" as="geometry">
            <mxPoint x="270" y="410" as="sourcePoint" />
            <mxPoint x="270" y="440" as="targetPoint" />
          </mxGeometry>
        </mxCell>
        <mxCell id="13MWcUhrzCZY7gtnkA32-22" value="}" style="text;html=1;align=center;verticalAlign=middle;resizable=0;points=[];autosize=1;strokeColor=none;fillColor=none;" parent="-hal_Foj1pg7Ubx8xO2s-1" vertex="1">
          <mxGeometry x="145" y="378" width="30" height="30" as="geometry" />
        </mxCell>
        <mxCell id="13MWcUhrzCZY7gtnkA32-25" value="" style="edgeStyle=orthogonalEdgeStyle;rounded=0;orthogonalLoop=1;jettySize=auto;html=1;" parent="-hal_Foj1pg7Ubx8xO2s-1" source="13MWcUhrzCZY7gtnkA32-23" target="13MWcUhrzCZY7gtnkA32-24" edge="1">
          <mxGeometry relative="1" as="geometry" />
        </mxCell>
        <mxCell id="13MWcUhrzCZY7gtnkA32-41" style="edgeStyle=orthogonalEdgeStyle;rounded=0;orthogonalLoop=1;jettySize=auto;html=1;" parent="-hal_Foj1pg7Ubx8xO2s-1" source="13MWcUhrzCZY7gtnkA32-23" target="13MWcUhrzCZY7gtnkA32-42" edge="1">
          <mxGeometry relative="1" as="geometry">
            <mxPoint x="270" y="920" as="targetPoint" />
            <Array as="points">
              <mxPoint x="430" y="460" />
              <mxPoint x="430" y="880" />
            </Array>
          </mxGeometry>
        </mxCell>
        <mxCell id="13MWcUhrzCZY7gtnkA32-23" value="for (int col = 0; col &amp;lt; size_arr; col++)" style="shape=hexagon;perimeter=hexagonPerimeter2;whiteSpace=wrap;html=1;fixedSize=1;" parent="-hal_Foj1pg7Ubx8xO2s-1" vertex="1">
          <mxGeometry x="160" y="440" width="220" height="40" as="geometry" />
        </mxCell>
        <mxCell id="13MWcUhrzCZY7gtnkA32-27" style="edgeStyle=orthogonalEdgeStyle;rounded=0;orthogonalLoop=1;jettySize=auto;html=1;exitX=0;exitY=0.5;exitDx=0;exitDy=0;" parent="-hal_Foj1pg7Ubx8xO2s-1" source="13MWcUhrzCZY7gtnkA32-24" target="13MWcUhrzCZY7gtnkA32-28" edge="1">
          <mxGeometry relative="1" as="geometry">
            <mxPoint x="150" y="600" as="targetPoint" />
          </mxGeometry>
        </mxCell>
        <mxCell id="13MWcUhrzCZY7gtnkA32-38" style="edgeStyle=orthogonalEdgeStyle;rounded=0;orthogonalLoop=1;jettySize=auto;html=1;" parent="-hal_Foj1pg7Ubx8xO2s-1" source="13MWcUhrzCZY7gtnkA32-24" edge="1">
          <mxGeometry relative="1" as="geometry">
            <mxPoint x="270" y="800" as="targetPoint" />
            <Array as="points">
              <mxPoint x="391" y="540" />
              <mxPoint x="391" y="800" />
            </Array>
          </mxGeometry>
        </mxCell>
        <mxCell id="13MWcUhrzCZY7gtnkA32-24" value="if (check(row, col))" style="rhombus;whiteSpace=wrap;html=1;" parent="-hal_Foj1pg7Ubx8xO2s-1" vertex="1">
          <mxGeometry x="190" y="520" width="160" height="40" as="geometry" />
        </mxCell>
        <mxCell id="13MWcUhrzCZY7gtnkA32-26" value="1" style="text;html=1;align=center;verticalAlign=middle;resizable=0;points=[];autosize=1;strokeColor=none;fillColor=none;" parent="-hal_Foj1pg7Ubx8xO2s-1" vertex="1">
          <mxGeometry x="265" y="490" width="30" height="30" as="geometry" />
        </mxCell>
        <mxCell id="13MWcUhrzCZY7gtnkA32-32" value="" style="edgeStyle=orthogonalEdgeStyle;rounded=0;orthogonalLoop=1;jettySize=auto;html=1;" parent="-hal_Foj1pg7Ubx8xO2s-1" source="13MWcUhrzCZY7gtnkA32-28" target="13MWcUhrzCZY7gtnkA32-31" edge="1">
          <mxGeometry relative="1" as="geometry" />
        </mxCell>
        <mxCell id="13MWcUhrzCZY7gtnkA32-28" value="pole[row][col] = 1;" style="rounded=0;whiteSpace=wrap;html=1;" parent="-hal_Foj1pg7Ubx8xO2s-1" vertex="1">
          <mxGeometry x="90" y="600" width="120" height="40" as="geometry" />
        </mxCell>
        <mxCell id="13MWcUhrzCZY7gtnkA32-29" value="1" style="text;html=1;align=center;verticalAlign=middle;resizable=0;points=[];autosize=1;strokeColor=none;fillColor=none;" parent="-hal_Foj1pg7Ubx8xO2s-1" vertex="1">
          <mxGeometry x="145" y="518" width="30" height="30" as="geometry" />
        </mxCell>
        <mxCell id="13MWcUhrzCZY7gtnkA32-30" value="{" style="text;html=1;align=center;verticalAlign=middle;resizable=0;points=[];autosize=1;strokeColor=none;fillColor=none;" parent="-hal_Foj1pg7Ubx8xO2s-1" vertex="1">
          <mxGeometry x="125" y="570" width="30" height="30" as="geometry" />
        </mxCell>
        <mxCell id="13MWcUhrzCZY7gtnkA32-34" value="" style="edgeStyle=orthogonalEdgeStyle;rounded=0;orthogonalLoop=1;jettySize=auto;html=1;" parent="-hal_Foj1pg7Ubx8xO2s-1" source="13MWcUhrzCZY7gtnkA32-31" target="13MWcUhrzCZY7gtnkA32-33" edge="1">
          <mxGeometry relative="1" as="geometry" />
        </mxCell>
        <mxCell id="13MWcUhrzCZY7gtnkA32-35" value="" style="edgeStyle=orthogonalEdgeStyle;rounded=0;orthogonalLoop=1;jettySize=auto;html=1;" parent="-hal_Foj1pg7Ubx8xO2s-1" source="13MWcUhrzCZY7gtnkA32-31" target="13MWcUhrzCZY7gtnkA32-33" edge="1">
          <mxGeometry relative="1" as="geometry" />
        </mxCell>
        <mxCell id="13MWcUhrzCZY7gtnkA32-31" value="game(row + 1);" style="whiteSpace=wrap;html=1;rounded=0;" parent="-hal_Foj1pg7Ubx8xO2s-1" vertex="1">
          <mxGeometry x="90" y="660" width="120" height="40" as="geometry" />
        </mxCell>
        <mxCell id="13MWcUhrzCZY7gtnkA32-36" style="edgeStyle=orthogonalEdgeStyle;rounded=0;orthogonalLoop=1;jettySize=auto;html=1;exitX=0.5;exitY=1;exitDx=0;exitDy=0;" parent="-hal_Foj1pg7Ubx8xO2s-1" source="13MWcUhrzCZY7gtnkA32-33" edge="1">
          <mxGeometry relative="1" as="geometry">
            <mxPoint x="270" y="800" as="targetPoint" />
            <Array as="points">
              <mxPoint x="150" y="800" />
            </Array>
          </mxGeometry>
        </mxCell>
        <mxCell id="13MWcUhrzCZY7gtnkA32-33" value="pole[row][col] = 0;" style="whiteSpace=wrap;html=1;rounded=0;" parent="-hal_Foj1pg7Ubx8xO2s-1" vertex="1">
          <mxGeometry x="90" y="720" width="120" height="40" as="geometry" />
        </mxCell>
        <mxCell id="13MWcUhrzCZY7gtnkA32-37" value="}" style="text;html=1;align=center;verticalAlign=middle;resizable=0;points=[];autosize=1;strokeColor=none;fillColor=none;" parent="-hal_Foj1pg7Ubx8xO2s-1" vertex="1">
          <mxGeometry x="145" y="760" width="30" height="30" as="geometry" />
        </mxCell>
        <mxCell id="13MWcUhrzCZY7gtnkA32-39" value="0" style="text;html=1;align=center;verticalAlign=middle;resizable=0;points=[];autosize=1;strokeColor=none;fillColor=none;" parent="-hal_Foj1pg7Ubx8xO2s-1" vertex="1">
          <mxGeometry x="365" y="518" width="30" height="30" as="geometry" />
        </mxCell>
        <mxCell id="13MWcUhrzCZY7gtnkA32-40" value="" style="endArrow=classic;html=1;rounded=0;entryX=0;entryY=0.5;entryDx=0;entryDy=0;" parent="-hal_Foj1pg7Ubx8xO2s-1" target="13MWcUhrzCZY7gtnkA32-23" edge="1">
          <mxGeometry width="50" height="50" relative="1" as="geometry">
            <mxPoint x="270" y="800" as="sourcePoint" />
            <mxPoint x="50" y="460" as="targetPoint" />
            <Array as="points">
              <mxPoint x="270" y="840" />
              <mxPoint x="50" y="840" />
              <mxPoint x="50" y="460" />
            </Array>
          </mxGeometry>
        </mxCell>
        <mxCell id="13MWcUhrzCZY7gtnkA32-42" value="return;" style="ellipse;whiteSpace=wrap;html=1;" parent="-hal_Foj1pg7Ubx8xO2s-1" vertex="1">
          <mxGeometry x="210" y="920" width="120" height="40" as="geometry" />
        </mxCell>
        <mxCell id="13MWcUhrzCZY7gtnkA32-43" value="}" style="text;html=1;align=center;verticalAlign=middle;resizable=0;points=[];autosize=1;strokeColor=none;fillColor=none;" parent="-hal_Foj1pg7Ubx8xO2s-1" vertex="1">
          <mxGeometry x="255" y="958" width="30" height="30" as="geometry" />
        </mxCell>
        <mxCell id="13MWcUhrzCZY7gtnkA32-44" value="0" style="text;html=1;align=center;verticalAlign=middle;resizable=0;points=[];autosize=1;strokeColor=none;fillColor=none;" parent="-hal_Foj1pg7Ubx8xO2s-1" vertex="1">
          <mxGeometry x="410" y="430" width="30" height="30" as="geometry" />
        </mxCell>
      </root>
    </mxGraphModel>
  </diagram>
</mxfile>
